<svg height="512" viewBox="0 0 58 54" width="512" xmlns="http://www.w3.org/2000/svg"><g id="Page-1" fill="none" fill-rule="evenodd"><g id="011---Credit-Card" fill-rule="nonzero"><path id="Shape" d="m54 2v11h-46.924c-4.064-3.628-3.667-8.911-1.316-11.24 1.12061008-1.13080213 2.64800212-1.76481393 4.24-1.76h42c1.1032019.0032948 1.9967052.89679813 2 2z" fill="#805333"/><path id="Shape" d="m4 24v-18c0 3.3137085 2.6862915 6 6 6h44c2.209139 0 4 1.790861 4 4v30c0 2.209139-1.790861 4-4 4h-14z" fill="#a56a43"/><path id="Shape" d="m40 48v3c0 1.6568542-1.3431458 3-3 3h-34c-1.65685425 0-3-1.3431458-3-3v-3z" fill="#f29c1f"/><path id="Shape" d="m40 27v15h-40v-15c0-1.6568542 1.34314575-3 3-3h34c1.6568542 0 3 1.3431458 3 3z" fill="#f29c1f"/><path id="Shape" d="m58 27v8h-6c-2.209139 0-4-1.790861-4-4s1.790861-4 4-4z" fill="#e4c05c"/><circle id="Oval" cx="52" cy="31" fill="#603e26" r="2"/><path id="Shape" d="m35 17h-2c-.5522847 0-1-.4477153-1-1s.4477153-1 1-1h2c.5522847 0 1 .4477153 1 1s-.4477153 1-1 1z" fill="#cf976a"/><path id="Shape" d="m54 17h-15c-.5522847 0-1-.4477153-1-1s.4477153-1 1-1h15c.5522847 0 1 .4477153 1 1s-.4477153 1-1 1z" fill="#cf976a"/><path id="Rectangle-path" d="m0 42h40v6h-40z" fill="#464f5d"/><path id="Shape" d="m27 33c-.0018653.6755997.170334 1.3402892.5 1.93-.8807428 1.5988374-2.7321609 2.3986136-4.4999936 1.9439086-1.7678326-.454705-3.0035903-2.0485349-3.0035903-3.8739086s1.2357577-3.4192036 3.0035903-3.8739086c1.7678327-.454705 3.6192508.3450712 4.4999936 1.9439086-.329666.5897108-.5018653 1.2544003-.5 1.93z" fill="#e64c3c"/><path id="Shape" d="m35 33c-.0029539 1.8227861-1.2378618 3.413047-3.0031385 3.8673115s-3.6144121-.3423692-4.4968615-1.9373115c-.6666475-1.2003159-.6666475-2.6596841 0-3.86.8824494-1.5949423 2.7315848-2.391576 4.4968615-1.9373115s3.0001846 2.0445254 3.0031385 3.8673115z" fill="#3b97d3"/><g fill="#d25627"><path id="Shape" d="m5 38h-1c-.55228475 0-1-.4477153-1-1s.44771525-1 1-1h1c.55228475 0 1 .4477153 1 1s-.44771525 1-1 1z"/><path id="Shape" d="m10 38h-1c-.55228475 0-1-.4477153-1-1s.44771525-1 1-1h1c.5522847 0 1 .4477153 1 1s-.4477153 1-1 1z"/><path id="Shape" d="m15 38h-1c-.5522847 0-1-.4477153-1-1s.4477153-1 1-1h1c.5522847 0 1 .4477153 1 1s-.4477153 1-1 1z"/></g><path id="Shape" d="m54 8v4.0000211l-44-.0000211c-.68206025.0018379-1.35909871-.1166438-2-.35v-3.65c.0032948-1.10320187.89679813-1.9967052 2-2h42c1.1032019.0032948 1.9967052.89679813 2 2z" fill="#4fba6f"/><path id="Shape" d="m54 10v2h-44c-.68206025.0018379-1.35909871-.1166438-2-.35v-1.65z" fill="#24ae5f"/></g></g></svg>